<mxfile host="app.diagrams.net" agent="Mozilla/5.0 (Windows NT 10.0; Win64; x64) AppleWebKit/537.36 (KHTML, like Gecko) Chrome/134.0.0.0 Safari/537.36 OPR/119.0.0.0" version="27.1.6">
  <diagram id="C5RBs43oDa-KdzZeNtuy" name="Page-1">
    <mxGraphModel dx="577" dy="1150" grid="1" gridSize="10" guides="1" tooltips="1" connect="1" arrows="1" fold="1" page="1" pageScale="1" pageWidth="827" pageHeight="1169" math="0" shadow="0">
      <root>
        <mxCell id="WIyWlLk6GJQsqaUBKTNV-0" />
        <mxCell id="WIyWlLk6GJQsqaUBKTNV-1" parent="WIyWlLk6GJQsqaUBKTNV-0" />
        <mxCell id="UW4Dl20vLm4pyve4zOM9-10" value="" style="edgeStyle=orthogonalEdgeStyle;rounded=0;orthogonalLoop=1;jettySize=auto;html=1;" edge="1" parent="WIyWlLk6GJQsqaUBKTNV-1" source="UW4Dl20vLm4pyve4zOM9-0" target="UW4Dl20vLm4pyve4zOM9-9">
          <mxGeometry relative="1" as="geometry" />
        </mxCell>
        <mxCell id="UW4Dl20vLm4pyve4zOM9-0" value="Room Requirement Check" style="rounded=1;whiteSpace=wrap;html=1;" vertex="1" parent="WIyWlLk6GJQsqaUBKTNV-1">
          <mxGeometry x="340" y="40" width="120" height="30" as="geometry" />
        </mxCell>
        <mxCell id="UW4Dl20vLm4pyve4zOM9-15" value="" style="edgeStyle=orthogonalEdgeStyle;rounded=0;orthogonalLoop=1;jettySize=auto;html=1;" edge="1" parent="WIyWlLk6GJQsqaUBKTNV-1" source="UW4Dl20vLm4pyve4zOM9-1" target="UW4Dl20vLm4pyve4zOM9-2">
          <mxGeometry relative="1" as="geometry" />
        </mxCell>
        <mxCell id="UW4Dl20vLm4pyve4zOM9-29" value="" style="edgeStyle=orthogonalEdgeStyle;rounded=0;orthogonalLoop=1;jettySize=auto;html=1;" edge="1" parent="WIyWlLk6GJQsqaUBKTNV-1" source="UW4Dl20vLm4pyve4zOM9-1" target="UW4Dl20vLm4pyve4zOM9-28">
          <mxGeometry relative="1" as="geometry" />
        </mxCell>
        <mxCell id="UW4Dl20vLm4pyve4zOM9-1" value="has title" style="rhombus;whiteSpace=wrap;html=1;" vertex="1" parent="WIyWlLk6GJQsqaUBKTNV-1">
          <mxGeometry x="360" y="340" width="80" height="80" as="geometry" />
        </mxCell>
        <mxCell id="UW4Dl20vLm4pyve4zOM9-16" value="" style="edgeStyle=orthogonalEdgeStyle;rounded=0;orthogonalLoop=1;jettySize=auto;html=1;" edge="1" parent="WIyWlLk6GJQsqaUBKTNV-1" source="UW4Dl20vLm4pyve4zOM9-2" target="UW4Dl20vLm4pyve4zOM9-3">
          <mxGeometry relative="1" as="geometry" />
        </mxCell>
        <mxCell id="UW4Dl20vLm4pyve4zOM9-30" style="edgeStyle=orthogonalEdgeStyle;rounded=0;orthogonalLoop=1;jettySize=auto;html=1;entryX=0.5;entryY=1;entryDx=0;entryDy=0;exitX=1;exitY=0.5;exitDx=0;exitDy=0;" edge="1" parent="WIyWlLk6GJQsqaUBKTNV-1" source="UW4Dl20vLm4pyve4zOM9-2" target="UW4Dl20vLm4pyve4zOM9-28">
          <mxGeometry relative="1" as="geometry" />
        </mxCell>
        <mxCell id="UW4Dl20vLm4pyve4zOM9-2" value="has image" style="rhombus;whiteSpace=wrap;html=1;" vertex="1" parent="WIyWlLk6GJQsqaUBKTNV-1">
          <mxGeometry x="360" y="440" width="80" height="80" as="geometry" />
        </mxCell>
        <mxCell id="UW4Dl20vLm4pyve4zOM9-17" value="" style="edgeStyle=orthogonalEdgeStyle;rounded=0;orthogonalLoop=1;jettySize=auto;html=1;" edge="1" parent="WIyWlLk6GJQsqaUBKTNV-1" source="UW4Dl20vLm4pyve4zOM9-3" target="UW4Dl20vLm4pyve4zOM9-4">
          <mxGeometry relative="1" as="geometry" />
        </mxCell>
        <mxCell id="UW4Dl20vLm4pyve4zOM9-31" style="edgeStyle=orthogonalEdgeStyle;rounded=0;orthogonalLoop=1;jettySize=auto;html=1;entryX=0.5;entryY=1;entryDx=0;entryDy=0;" edge="1" parent="WIyWlLk6GJQsqaUBKTNV-1" source="UW4Dl20vLm4pyve4zOM9-3" target="UW4Dl20vLm4pyve4zOM9-28">
          <mxGeometry relative="1" as="geometry" />
        </mxCell>
        <mxCell id="UW4Dl20vLm4pyve4zOM9-3" value="has localisation" style="rhombus;whiteSpace=wrap;html=1;" vertex="1" parent="WIyWlLk6GJQsqaUBKTNV-1">
          <mxGeometry x="350" y="540" width="100" height="80" as="geometry" />
        </mxCell>
        <mxCell id="UW4Dl20vLm4pyve4zOM9-11" value="" style="edgeStyle=orthogonalEdgeStyle;rounded=0;orthogonalLoop=1;jettySize=auto;html=1;" edge="1" parent="WIyWlLk6GJQsqaUBKTNV-1" source="UW4Dl20vLm4pyve4zOM9-4" target="UW4Dl20vLm4pyve4zOM9-5">
          <mxGeometry relative="1" as="geometry" />
        </mxCell>
        <mxCell id="UW4Dl20vLm4pyve4zOM9-32" style="edgeStyle=orthogonalEdgeStyle;rounded=0;orthogonalLoop=1;jettySize=auto;html=1;" edge="1" parent="WIyWlLk6GJQsqaUBKTNV-1" source="UW4Dl20vLm4pyve4zOM9-4" target="UW4Dl20vLm4pyve4zOM9-28">
          <mxGeometry relative="1" as="geometry" />
        </mxCell>
        <mxCell id="UW4Dl20vLm4pyve4zOM9-4" value="has keywords" style="rhombus;whiteSpace=wrap;html=1;" vertex="1" parent="WIyWlLk6GJQsqaUBKTNV-1">
          <mxGeometry x="350" y="650" width="100" height="70" as="geometry" />
        </mxCell>
        <mxCell id="UW4Dl20vLm4pyve4zOM9-19" value="" style="edgeStyle=orthogonalEdgeStyle;rounded=0;orthogonalLoop=1;jettySize=auto;html=1;" edge="1" parent="WIyWlLk6GJQsqaUBKTNV-1" source="UW4Dl20vLm4pyve4zOM9-5" target="UW4Dl20vLm4pyve4zOM9-18">
          <mxGeometry relative="1" as="geometry" />
        </mxCell>
        <mxCell id="UW4Dl20vLm4pyve4zOM9-33" style="edgeStyle=orthogonalEdgeStyle;rounded=0;orthogonalLoop=1;jettySize=auto;html=1;entryX=0.5;entryY=1;entryDx=0;entryDy=0;" edge="1" parent="WIyWlLk6GJQsqaUBKTNV-1" source="UW4Dl20vLm4pyve4zOM9-5" target="UW4Dl20vLm4pyve4zOM9-28">
          <mxGeometry relative="1" as="geometry" />
        </mxCell>
        <mxCell id="UW4Dl20vLm4pyve4zOM9-5" value="has keywords" style="rhombus;whiteSpace=wrap;html=1;" vertex="1" parent="WIyWlLk6GJQsqaUBKTNV-1">
          <mxGeometry x="350" y="750" width="100" height="80" as="geometry" />
        </mxCell>
        <mxCell id="UW4Dl20vLm4pyve4zOM9-13" value="" style="edgeStyle=orthogonalEdgeStyle;rounded=0;orthogonalLoop=1;jettySize=auto;html=1;" edge="1" parent="WIyWlLk6GJQsqaUBKTNV-1" source="UW4Dl20vLm4pyve4zOM9-6" target="UW4Dl20vLm4pyve4zOM9-8">
          <mxGeometry relative="1" as="geometry" />
        </mxCell>
        <mxCell id="UW4Dl20vLm4pyve4zOM9-22" style="edgeStyle=orthogonalEdgeStyle;rounded=0;orthogonalLoop=1;jettySize=auto;html=1;exitX=0;exitY=0.5;exitDx=0;exitDy=0;entryX=0.5;entryY=0;entryDx=0;entryDy=0;" edge="1" parent="WIyWlLk6GJQsqaUBKTNV-1" source="UW4Dl20vLm4pyve4zOM9-6" target="UW4Dl20vLm4pyve4zOM9-24">
          <mxGeometry relative="1" as="geometry">
            <mxPoint x="130" y="210" as="targetPoint" />
            <Array as="points">
              <mxPoint x="150" y="210" />
            </Array>
          </mxGeometry>
        </mxCell>
        <mxCell id="UW4Dl20vLm4pyve4zOM9-23" value="No" style="edgeLabel;html=1;align=center;verticalAlign=middle;resizable=0;points=[];" vertex="1" connectable="0" parent="UW4Dl20vLm4pyve4zOM9-22">
          <mxGeometry x="0.1339" y="-3" relative="1" as="geometry">
            <mxPoint x="5" y="3" as="offset" />
          </mxGeometry>
        </mxCell>
        <mxCell id="UW4Dl20vLm4pyve4zOM9-6" value="User = Admin" style="rhombus;whiteSpace=wrap;html=1;" vertex="1" parent="WIyWlLk6GJQsqaUBKTNV-1">
          <mxGeometry x="350" y="170" width="100" height="80" as="geometry" />
        </mxCell>
        <mxCell id="UW4Dl20vLm4pyve4zOM9-14" value="" style="edgeStyle=orthogonalEdgeStyle;rounded=0;orthogonalLoop=1;jettySize=auto;html=1;" edge="1" parent="WIyWlLk6GJQsqaUBKTNV-1" source="UW4Dl20vLm4pyve4zOM9-8" target="UW4Dl20vLm4pyve4zOM9-1">
          <mxGeometry relative="1" as="geometry" />
        </mxCell>
        <mxCell id="UW4Dl20vLm4pyve4zOM9-8" value="Edit/Creation Confirmation" style="rounded=1;whiteSpace=wrap;html=1;" vertex="1" parent="WIyWlLk6GJQsqaUBKTNV-1">
          <mxGeometry x="340" y="270" width="120" height="40" as="geometry" />
        </mxCell>
        <mxCell id="UW4Dl20vLm4pyve4zOM9-12" value="" style="edgeStyle=orthogonalEdgeStyle;rounded=0;orthogonalLoop=1;jettySize=auto;html=1;" edge="1" parent="WIyWlLk6GJQsqaUBKTNV-1" source="UW4Dl20vLm4pyve4zOM9-9" target="UW4Dl20vLm4pyve4zOM9-6">
          <mxGeometry relative="1" as="geometry" />
        </mxCell>
        <mxCell id="UW4Dl20vLm4pyve4zOM9-9" value="On page Arrival" style="rounded=1;whiteSpace=wrap;html=1;" vertex="1" parent="WIyWlLk6GJQsqaUBKTNV-1">
          <mxGeometry x="340" y="100" width="120" height="30" as="geometry" />
        </mxCell>
        <mxCell id="UW4Dl20vLm4pyve4zOM9-21" value="" style="edgeStyle=orthogonalEdgeStyle;rounded=0;orthogonalLoop=1;jettySize=auto;html=1;" edge="1" parent="WIyWlLk6GJQsqaUBKTNV-1" source="UW4Dl20vLm4pyve4zOM9-18" target="UW4Dl20vLm4pyve4zOM9-20">
          <mxGeometry relative="1" as="geometry" />
        </mxCell>
        <mxCell id="UW4Dl20vLm4pyve4zOM9-34" style="edgeStyle=orthogonalEdgeStyle;rounded=0;orthogonalLoop=1;jettySize=auto;html=1;entryX=0.5;entryY=1;entryDx=0;entryDy=0;" edge="1" parent="WIyWlLk6GJQsqaUBKTNV-1" source="UW4Dl20vLm4pyve4zOM9-18" target="UW4Dl20vLm4pyve4zOM9-28">
          <mxGeometry relative="1" as="geometry" />
        </mxCell>
        <mxCell id="UW4Dl20vLm4pyve4zOM9-18" value="has availabilty" style="rhombus;whiteSpace=wrap;html=1;" vertex="1" parent="WIyWlLk6GJQsqaUBKTNV-1">
          <mxGeometry x="340" y="850" width="120" height="80" as="geometry" />
        </mxCell>
        <mxCell id="UW4Dl20vLm4pyve4zOM9-27" value="" style="edgeStyle=orthogonalEdgeStyle;rounded=0;orthogonalLoop=1;jettySize=auto;html=1;" edge="1" parent="WIyWlLk6GJQsqaUBKTNV-1" source="UW4Dl20vLm4pyve4zOM9-20" target="UW4Dl20vLm4pyve4zOM9-25">
          <mxGeometry relative="1" as="geometry" />
        </mxCell>
        <mxCell id="UW4Dl20vLm4pyve4zOM9-35" style="edgeStyle=orthogonalEdgeStyle;rounded=0;orthogonalLoop=1;jettySize=auto;html=1;entryX=0.5;entryY=1;entryDx=0;entryDy=0;" edge="1" parent="WIyWlLk6GJQsqaUBKTNV-1" source="UW4Dl20vLm4pyve4zOM9-20" target="UW4Dl20vLm4pyve4zOM9-28">
          <mxGeometry relative="1" as="geometry" />
        </mxCell>
        <mxCell id="UW4Dl20vLm4pyve4zOM9-20" value="has capacity" style="rhombus;whiteSpace=wrap;html=1;" vertex="1" parent="WIyWlLk6GJQsqaUBKTNV-1">
          <mxGeometry x="340" y="950" width="120" height="80" as="geometry" />
        </mxCell>
        <mxCell id="UW4Dl20vLm4pyve4zOM9-24" value="Go to desired page" style="ellipse;whiteSpace=wrap;html=1;" vertex="1" parent="WIyWlLk6GJQsqaUBKTNV-1">
          <mxGeometry x="90" y="1050" width="120" height="30" as="geometry" />
        </mxCell>
        <mxCell id="UW4Dl20vLm4pyve4zOM9-26" style="edgeStyle=orthogonalEdgeStyle;rounded=0;orthogonalLoop=1;jettySize=auto;html=1;entryX=1;entryY=0.5;entryDx=0;entryDy=0;" edge="1" parent="WIyWlLk6GJQsqaUBKTNV-1" source="UW4Dl20vLm4pyve4zOM9-25" target="UW4Dl20vLm4pyve4zOM9-24">
          <mxGeometry relative="1" as="geometry" />
        </mxCell>
        <mxCell id="UW4Dl20vLm4pyve4zOM9-36" style="edgeStyle=orthogonalEdgeStyle;rounded=0;orthogonalLoop=1;jettySize=auto;html=1;entryX=0.5;entryY=1;entryDx=0;entryDy=0;" edge="1" parent="WIyWlLk6GJQsqaUBKTNV-1" source="UW4Dl20vLm4pyve4zOM9-25" target="UW4Dl20vLm4pyve4zOM9-28">
          <mxGeometry relative="1" as="geometry" />
        </mxCell>
        <mxCell id="UW4Dl20vLm4pyve4zOM9-37" value="No" style="edgeLabel;html=1;align=center;verticalAlign=middle;resizable=0;points=[];" vertex="1" connectable="0" parent="UW4Dl20vLm4pyve4zOM9-36">
          <mxGeometry x="0.2082" relative="1" as="geometry">
            <mxPoint y="-1" as="offset" />
          </mxGeometry>
        </mxCell>
        <mxCell id="UW4Dl20vLm4pyve4zOM9-25" value="Add Room / Push Edit" style="rounded=1;whiteSpace=wrap;html=1;" vertex="1" parent="WIyWlLk6GJQsqaUBKTNV-1">
          <mxGeometry x="340" y="1050" width="120" height="30" as="geometry" />
        </mxCell>
        <mxCell id="UW4Dl20vLm4pyve4zOM9-28" value="Show message error" style="rounded=1;whiteSpace=wrap;html=1;" vertex="1" parent="WIyWlLk6GJQsqaUBKTNV-1">
          <mxGeometry x="510" y="350" width="120" height="60" as="geometry" />
        </mxCell>
      </root>
    </mxGraphModel>
  </diagram>
</mxfile>
